<?xml version="1.0" standalone="no"?>
<!DOCTYPE svg PUBLIC "-//W3C//DTD SVG 20010904//EN"
 "http://www.w3.org/TR/2001/REC-SVG-20010904/DTD/svg10.dtd">
<svg version="1.0" xmlns="http://www.w3.org/2000/svg"
 width="300.000000pt" height="300.000000pt" viewBox="0 0 300.000000 300.000000"
 preserveAspectRatio="xMidYMid meet">
<metadata>
Created by potrace 1.16, written by Peter Selinger 2001-2019
</metadata>
<g transform="translate(0.000000,300.000000) scale(0.100000,-0.100000)"
fill="#000000" stroke="none">
<path d="M1623 1820 c-11 -25 -22 -51 -24 -59 -4 -11 -28 -14 -100 -15 -103
-1 -144 -16 -214 -77 -160 -141 -120 -412 74 -499 25 -12 54 -26 63 -31 10 -5
42 -9 72 -9 67 0 179 53 227 108 123 140 94 362 -61 462 -27 18 -50 33 -50 35
0 13 14 35 22 35 6 0 24 -12 41 -26 34 -29 61 -27 109 7 36 26 35 35 -4 59
-42 26 -83 25 -108 0 -25 -25 -45 -17 -29 11 5 11 8 25 6 32 -3 7 -13 -8 -24
-33z m-10 -120 c177 -91 218 -320 81 -455 -62 -60 -132 -88 -212 -83 -160 9
-272 129 -272 289 0 71 46 167 102 212 84 68 211 83 301 37z"/>
<path d="M431 1584 c-22 -28 -31 -124 -11 -124 6 0 10 9 10 20 0 18 7 20 55
20 48 0 55 -2 55 -20 0 -11 5 -20 10 -20 6 0 10 32 10 75 l0 75 -54 0 c-47 0
-57 -4 -75 -26z"/>
</g>
</svg>
